<svg xmlns="http://www.w3.org/2000/svg" viewBox="0 0 57.09 30"><defs><style>.cls-1{fill:#3cb6ce;}</style></defs><title>Asset 2</title><g id="Layer_2" data-name="Layer 2"><g id="Capa_1" data-name="Capa 1"><path class="cls-1" d="M23.7,22.77v3.84a.44.44,0,0,1-.42.44H4.69L23.35,2.59V0H.36V3H18.71L0,27.41V30H23.7V27.5a.44.44,0,0,1,.44-.44H28a.44.44,0,0,0,.44-.44V22.32H24.15a.45.45,0,0,0-.45.45"/><path class="cls-1" d="M57.09,22.32v4.29a.44.44,0,0,1-.44.44H52.81a.45.45,0,0,0-.45.44V30H31.87V2.81c0-.31-.13-.44-.45-.58l-1.34-.58L30.4,0H52V3H35.57v10.4H48.79v2.77H35.57V27.05H51.93a.44.44,0,0,0,.43-.44V22.77a.45.45,0,0,1,.45-.45Z"/></g></g></svg>