<svg xmlns="http://www.w3.org/2000/svg" viewBox="0 0 165 91.67"><defs><style>.cls-1{fill:#fff;}.cls-2{fill:none;stroke:#3cb6ce;stroke-miterlimit:10;stroke-width:0.5px;}</style></defs><title>Asset 6</title><g id="Layer_2" data-name="Layer 2"><g id="Capa_1" data-name="Capa 1"><path class="cls-1" d="M0,0V91.67H165V0ZM82.3,77.77A1.18,1.18,0,0,1,81.12,79H70.89a1.19,1.19,0,0,0-1.19,1.19v6.66H6.48V79.91L56.37,14.68H7.44V6.82h61.3v6.9L19,79H68.56a1.19,1.19,0,0,0,1.14-1.18V67.54a1.19,1.19,0,0,1,1.19-1.19H82.3Zm76.43,0A1.19,1.19,0,0,1,157.54,79H147.31a1.19,1.19,0,0,0-1.19,1.19v6.66H91.47V14.32c0-.83-.36-1.19-1.19-1.55l-3.57-1.55.83-4.4h57.62v7.86H101.35V42.41h35.23v7.38H101.35V79H145a1.19,1.19,0,0,0,1.14-1.18V67.54a1.19,1.19,0,0,1,1.19-1.19h11.43Z"/><path class="cls-2" d="M82.3,77.77A1.18,1.18,0,0,1,81.12,79H70.89a1.19,1.19,0,0,0-1.19,1.19v6.66H6.48V79.91L56.37,14.68H7.44V6.82h61.3v6.9L19,79H68.56a1.19,1.19,0,0,0,1.14-1.18V67.54a1.19,1.19,0,0,1,1.19-1.19H82.3Z"/><path class="cls-2" d="M158.73,77.78A1.19,1.19,0,0,1,157.54,79H147.31a1.19,1.19,0,0,0-1.19,1.19v6.66H91.47V14.32c0-.83-.36-1.19-1.19-1.55l-3.57-1.55.83-4.4h57.62v7.86H101.35V42.41h35.23v7.38H101.35V79H145a1.19,1.19,0,0,0,1.14-1.18V67.54a1.19,1.19,0,0,1,1.19-1.19h11.43Z"/></g></g></svg>