<?xml version="1.0" standalone="no"?>
<!DOCTYPE svg PUBLIC "-//W3C//DTD SVG 20010904//EN"
 "http://www.w3.org/TR/2001/REC-SVG-20010904/DTD/svg10.dtd">
<svg version="1.0" xmlns="http://www.w3.org/2000/svg"
 width="511.000000pt" height="286.000000pt" viewBox="0 0 511.000000 286.000000"
 preserveAspectRatio="xMidYMid meet">

<g transform="translate(0.000000,286.000000) scale(0.100000,-0.100000)"
fill="#000000" stroke="none">
<path d="M0 1430 l0 -1430 2555 0 2555 0 0 1430 0 1430 -2555 0 -2555 0 0
-1430z m1060 510 l0 -220 -237 -2 -238 -3 -3 -147 -3 -148 206 0 205 0 0 -190
0 -190 -205 0 -206 0 3 -390 3 -390 -172 0 -173 0 0 950 0 950 410 0 410 0 0
-220z m844 174 c3 -26 6 -75 6 -110 0 -35 4 -64 9 -64 5 0 12 -61 16 -135 5
-89 11 -135 19 -135 6 0 4 -5 -4 -10 -11 -7 -12 -12 -4 -17 7 -5 15 -57 19
-123 3 -63 11 -117 17 -119 6 -2 5 -7 -3 -13 -11 -7 -11 -11 -1 -15 8 -3 12
-28 13 -71 1 -79 15 -203 18 -154 1 21 6 32 16 32 12 0 15 13 15 60 0 33 4 60
10 60 6 0 10 14 10 30 0 17 -4 30 -10 30 -17 0 -11 37 6 44 13 5 15 15 10 48
-4 24 -3 44 3 48 6 3 11 47 13 98 3 80 5 92 21 92 13 0 17 9 17 40 0 29 -4 40
-15 40 -8 0 -15 9 -15 20 0 13 7 20 19 20 16 0 19 11 25 85 4 47 4 90 1 95 -3
6 -1 10 4 10 6 0 11 21 11 49 0 27 3 63 6 80 l7 31 153 0 c147 0 154 -1 154
-20 0 -11 7 -20 15 -20 10 0 15 -10 15 -27 0 -16 9 -126 22 -245 18 -181 24
-218 37 -219 13 -1 12 -2 -1 -6 -22 -5 -24 -23 -3 -23 10 0 15 -11 16 -32 0
-18 2 -46 4 -63 2 -16 9 -77 14 -135 21 -211 23 -230 37 -230 17 0 28 77 21
141 -5 39 -3 49 8 49 19 0 21 106 3 113 -10 4 -9 8 2 16 11 7 16 33 17 93 2
46 7 84 13 86 5 2 10 33 10 68 0 36 4 64 10 64 6 0 10 28 10 65 0 45 -4 65
-12 65 -9 0 -8 3 2 10 10 6 15 27 16 67 0 32 4 86 9 121 l8 62 149 0 150 0 -5
-32 c-3 -18 -9 -81 -13 -140 -5 -82 -10 -108 -20 -108 -11 0 -14 -19 -15 -82
0 -46 -2 -90 -4 -99 -1 -8 -8 -87 -15 -175 -7 -87 -14 -168 -16 -179 -1 -11
-3 -44 -3 -72 -1 -40 -5 -53 -16 -53 -21 0 -19 -20 3 -21 16 -1 16 -2 0 -6
-10 -2 -18 -10 -18 -16 0 -7 -7 -112 -17 -234 -13 -166 -21 -223 -30 -223 -9
0 -13 -21 -13 -75 0 -41 -4 -75 -9 -75 -4 0 -11 -44 -15 -97 -4 -54 -9 -124
-13 -155 l-6 -58 -152 0 -152 0 -7 40 c-4 26 -11 40 -21 40 -8 0 -15 9 -15 20
0 11 7 20 15 20 8 0 15 9 15 20 0 11 -7 20 -15 20 -11 0 -15 12 -15 45 0 33
-4 45 -15 45 -9 0 -15 9 -15 25 0 14 5 25 10 25 6 0 10 7 10 15 0 8 -4 15 -10
15 -6 0 -10 30 -10 70 0 60 -3 70 -17 71 -11 0 -13 3 -5 6 14 6 17 83 2 83 -5
0 -10 7 -10 15 0 8 -6 15 -12 16 -10 0 -10 2 0 6 14 6 17 63 2 63 -6 0 -10 27
-10 60 0 36 -4 60 -11 60 -5 0 -8 4 -4 9 11 19 -7 171 -20 171 -9 0 -13 16
-12 52 1 33 -2 53 -10 55 -15 5 -18 43 -3 43 6 0 10 12 10 26 0 16 -5 24 -12
22 -8 -3 -14 -27 -16 -59 -2 -29 -7 -56 -12 -59 -8 -5 -15 -62 -26 -227 -4
-57 -11 -103 -16 -103 -4 0 -8 -11 -8 -25 0 -16 -6 -25 -15 -25 -21 0 -19 -30
3 -31 16 -1 16 -2 0 -6 -12 -3 -19 -15 -20 -34 -2 -35 -3 -44 -19 -226 -9
-102 -16 -143 -25 -143 -8 0 -15 -25 -19 -77 -4 -43 -8 -87 -10 -98 -2 -11 -4
-26 -4 -32 -1 -10 -40 -13 -160 -13 l-159 0 5 60 c5 54 4 60 -13 61 -11 0 -13
3 -6 6 6 2 12 22 12 44 0 33 -4 40 -25 45 -27 7 -35 34 -10 34 10 0 15 11 15
35 0 29 -4 35 -20 35 -20 0 -20 4 -14 74 4 47 3 76 -4 80 -6 3 -8 30 -5 66 3
33 2 60 -3 60 -5 0 -7 22 -6 50 3 39 0 51 -12 56 -18 7 -23 74 -6 74 6 0 10
18 10 40 0 33 -3 40 -20 40 -11 0 -20 5 -20 10 0 6 5 10 10 10 14 0 13 77 -1
82 -7 2 -11 29 -10 71 1 37 -3 67 -7 67 -5 0 -9 28 -8 62 1 41 -3 63 -11 65
-15 5 -18 43 -3 43 6 0 10 16 10 35 0 19 -4 35 -10 35 -6 0 -10 26 -10 59 0
40 -5 65 -15 75 -17 17 -20 36 -5 36 6 0 10 27 10 60 0 33 -4 60 -10 60 -5 0
-10 23 -10 50 0 43 -3 52 -22 60 -18 7 -19 9 -5 9 14 1 17 11 17 56 0 42 -3
55 -15 55 -8 0 -15 9 -15 20 0 19 7 20 154 20 l153 0 7 -46z m2626 -174 l0
-220 -160 0 -160 0 0 -730 0 -730 -160 0 -160 0 0 730 0 730 -175 0 -175 0 0
220 0 220 495 0 495 0 0 -220z m-3020 -1425 l0 -255 -150 0 -150 0 0 255 0
255 150 0 150 0 0 -255z m1920 0 l0 -255 -145 0 -145 0 0 255 0 255 145 0 145
0 0 -255z m1530 0 l0 -255 -150 0 -150 0 0 255 0 255 150 0 150 0 0 -255z"/>
<path d="M2618 1123 c7 -3 16 -2 19 1 4 3 -2 6 -13 5 -11 0 -14 -3 -6 -6z"/>
</g>
</svg>
