<svg xmlns="http://www.w3.org/2000/svg" viewBox="0 0 174 174"><defs><style>.cls-1{fill:#3cb6ce;}</style></defs><title>Asset 2</title><g id="Layer_2" data-name="Layer 2"><g id="Capa_1" data-name="Capa 1"><path class="cls-1" d="M20.31,113.1A11.61,11.61,0,1,0,31.9,124.69,11.63,11.63,0,0,0,20.31,113.1Zm0,17.4a5.8,5.8,0,1,1,5.79-5.81,5.82,5.82,0,0,1-5.79,5.81Z"/><path class="cls-1" d="M162.4,110.19a2.91,2.91,0,0,0-2.9,2.91v11.59a2.91,2.91,0,1,0,5.81,0V113.1a2.92,2.92,0,0,0-2.91-2.91Z"/><path class="cls-1" d="M162.4,130.5a2.9,2.9,0,0,0-2.9,2.9v2.91a2.91,2.91,0,0,0,5.81,0V133.4a2.91,2.91,0,0,0-2.91-2.9Z"/><path class="cls-1" d="M104.4,17.4h-2.9a2.9,2.9,0,1,0,0,5.79h2.9a2.9,2.9,0,1,0,0-5.79Z"/><path class="cls-1" d="M147.9,17.4a2.9,2.9,0,1,0,0,5.79h2.91a2.9,2.9,0,0,0,0-5.79Z"/><path class="cls-1" d="M159.5,17.4a2.9,2.9,0,1,0,0,5.79h2.9a2.9,2.9,0,1,0,0-5.79Z"/><path class="cls-1" d="M116,17.4h-2.9a2.9,2.9,0,1,0,0,5.79H116a2.9,2.9,0,1,0,0-5.79Z"/><path class="cls-1" d="M136.31,17.4a2.9,2.9,0,1,0,0,5.79h2.88a2.9,2.9,0,1,0,0-5.79Z"/><path class="cls-1" d="M127.6,17.4h-2.91a2.9,2.9,0,0,0,0,5.79h2.91a2.9,2.9,0,1,0,0-5.79Z"/><path class="cls-1" d="M92.81,17.4H89.9a2.9,2.9,0,1,0,0,5.79h2.91a2.9,2.9,0,0,0,0-5.79Z"/><path class="cls-1" d="M173.7,85.5a12.44,12.44,0,0,0-2-4.63A2.85,2.85,0,0,0,174,78.08V75.2a2.91,2.91,0,0,0-5.81,0v2.3s-.07,0-.1-.06a13.28,13.28,0,0,0-1.61-.88l-.5-.22-.38-.17c-.1,0-.19,0-.31,0a12.74,12.74,0,0,0-4.06-.72H83.69a2.9,2.9,0,0,0-2.5-1.46,2.83,2.83,0,0,0-2.44,1.46h-66A12.79,12.79,0,0,0,0,88.17v73.06A12.79,12.79,0,0,0,12.77,174H161.23A12.79,12.79,0,0,0,174,161.23V86.73a2.69,2.69,0,0,0-.3-1.23Zm-91-4.31h68.16v87H40.6v-87Zm-76.84,80V88.17a7,7,0,0,1,7-7h22v87h-22a7,7,0,0,1-7-7Zm162.38,0a7,7,0,0,1-7,7H156.6v-87h4.63a7.45,7.45,0,0,1,4,1.26,7,7,0,0,1,3,5.72Z"/><path class="cls-1" d="M168.19,66.55a2.91,2.91,0,1,0,5.81,0V63.68a2.91,2.91,0,0,0-5.81,0Z"/><path class="cls-1" d="M168.19,43.5a2.91,2.91,0,0,0,5.81,0V40.63a2.91,2.91,0,1,0-5.81,0Z"/><path class="cls-1" d="M135.44,5.81h2.88a2.91,2.91,0,0,0,0-5.81h-2.88a2.91,2.91,0,0,0,0,5.81Z"/><path class="cls-1" d="M158.5,5.81h2.87A2.85,2.85,0,0,0,164.2,2.9a3,3,0,0,0-3-2.9H158.5a2.91,2.91,0,1,0,0,5.81Z"/><path class="cls-1" d="M147,5.81h2.87a2.91,2.91,0,1,0,0-5.81H147a2.91,2.91,0,1,0,0,5.81Z"/><path class="cls-1" d="M167.69,10.12a2.87,2.87,0,0,0,2.67,1.8,3.12,3.12,0,0,0,1.11-.21,2.92,2.92,0,0,0,1.58-3.78,12.89,12.89,0,0,0-1.9-3.2,2.9,2.9,0,0,0-4.51,3.65,6.9,6.9,0,0,1,1.05,1.74Z"/><path class="cls-1" d="M171.1,34.88A2.89,2.89,0,0,0,174,32V29.1a2.91,2.91,0,0,0-5.81,0V32a2.9,2.9,0,0,0,2.91,2.89Z"/><path class="cls-1" d="M168.19,55A2.91,2.91,0,0,0,174,55V52.15a2.91,2.91,0,0,0-5.81,0Z"/><path class="cls-1" d="M171.1,14.67a2.91,2.91,0,0,0-2.91,2.9v2.89a2.91,2.91,0,0,0,5.81,0V17.57a2.9,2.9,0,0,0-2.9-2.9Z"/><path class="cls-1" d="M81.19,36.47a2.91,2.91,0,0,0,2.91-2.9V30.69a2.9,2.9,0,0,0-5.79,0v2.88a2.89,2.89,0,0,0,2.88,2.9Z"/><path class="cls-1" d="M81.19,48a2.91,2.91,0,0,0,2.91-2.9V42.21a2.9,2.9,0,1,0-5.79,0V45.1A2.89,2.89,0,0,0,81.19,48Z"/><path class="cls-1" d="M81.19,71a2.9,2.9,0,0,0,2.91-2.89V65.26a2.9,2.9,0,1,0-5.79,0v2.89A2.88,2.88,0,0,0,81.19,71Z"/><path class="cls-1" d="M123.92,5.81h2.87a2.91,2.91,0,0,0,0-5.81h-2.87a2.91,2.91,0,1,0,0,5.81Z"/><path class="cls-1" d="M81.19,25a2.91,2.91,0,0,0,2.91-2.9V19.16a2.9,2.9,0,0,0-5.79,0v2.89A2.89,2.89,0,0,0,81.19,25Z"/><path class="cls-1" d="M81.19,59.53a2.92,2.92,0,0,0,2.91-2.9V53.74a2.9,2.9,0,1,0-5.79,0v2.89a2.89,2.89,0,0,0,2.88,2.9Z"/><path class="cls-1" d="M112.39,5.81h2.87a2.91,2.91,0,1,0,0-5.81h-2.87a2.91,2.91,0,0,0,0,5.81Z"/><path class="cls-1" d="M100.86,5.81h2.89a2.91,2.91,0,0,0,0-5.81h-2.89a2.91,2.91,0,0,0,0,5.81Z"/><path class="cls-1" d="M80.8,13.37a3.8,3.8,0,0,0,.66.07,2.9,2.9,0,0,0,2.82-2.25A6.89,6.89,0,0,1,85,9.32a2.9,2.9,0,1,0-5-2.89,12.79,12.79,0,0,0-1.36,3.46,2.9,2.9,0,0,0,2.17,3.48Z"/><path class="cls-1" d="M89.35,6a4.56,4.56,0,0,0,.51,0,6.09,6.09,0,0,1,1.22-.1h1.14a2.91,2.91,0,0,0,0-5.81H91.08a13,13,0,0,0-2.24.2A2.9,2.9,0,0,0,89.35,6Z"/><path class="cls-1" d="M65.25,10.16a2.92,2.92,0,0,0-2.91-2.91A37.76,37.76,0,0,0,24.63,45v7.49L12.19,40a2.9,2.9,0,0,0-4.09,4.1L25.49,61.5a3,3,0,0,0,1,.64,2.89,2.89,0,0,0,2.2,0,3,3,0,0,0,.95-.64L47,44.11a2.9,2.9,0,0,0,.85-2,2.9,2.9,0,0,0-5-2.05L30.44,52.45V45a31.94,31.94,0,0,1,31.9-31.9,2.91,2.91,0,0,0,2.91-2.9Z"/></g></g></svg>